<svg width="40" height="40" viewBox="0 0 40 40" fill="none" xmlns="http://www.w3.org/2000/svg">
<path fill-rule="evenodd" clip-rule="evenodd" d="M20 2C10.1501 2 2 9.8156 2 19.6624C2 23.6296 3.33392 27.2864 5.571 30.2246C5.9318 30.6986 6.04754 31.0844 6.0292 31.3584C5.93738 32.7296 5.47866 34.0734 4.31906 35.2788C3.91896 35.6946 3.78536 36.3108 3.97012 36.863C4.1552 37.4162 4.63072 37.816 5.1996 37.8794C8.84206 38.2856 12.0559 37.598 13.9718 36.819C14.429 36.633 14.8661 36.5996 15.2182 36.6946C16.7428 37.1058 18.3466 37.3248 20 37.3248C29.85 37.3248 38 29.5092 38 19.6624C38 9.8156 29.85 2 20 2ZM4.93504 19.6624C4.93504 11.6869 11.5894 5.05602 20 5.05602C28.4106 5.05602 35.065 11.6869 35.065 19.6624C35.065 27.6378 28.4106 34.2688 20 34.2688C18.5962 34.2688 17.2398 34.083 15.9543 33.7362C14.8875 33.4486 13.8121 33.603 12.9038 33.9724C11.8384 34.4056 10.1452 34.8394 8.12262 34.9278C8.63094 33.8266 8.88234 32.688 8.95714 31.571C9.04648 30.2368 8.46846 29.1108 7.87104 28.3262C6.01992 25.8948 4.93504 22.899 4.93504 19.6624Z" fill="black"/>
<path d="M14 20C14 21.1046 13.1046 22 12 22C10.8954 22 10 21.1046 10 20C10 18.8954 10.8954 18 12 18C13.1046 18 14 18.8954 14 20Z" fill="black"/>
<path d="M22 20C22 21.1046 21.1046 22 20 22C18.8954 22 18 21.1046 18 20C18 18.8954 18.8954 18 20 18C21.1046 18 22 18.8954 22 20Z" fill="black"/>
<path d="M30 20C30 21.1046 29.1046 22 28 22C26.8954 22 26 21.1046 26 20C26 18.8954 26.8954 18 28 18C29.1046 18 30 18.8954 30 20Z" fill="black"/>
</svg>
