<svg width="40" height="40" viewBox="0 0 40 40" fill="none" xmlns="http://www.w3.org/2000/svg">
<path fill-rule="evenodd" clip-rule="evenodd" d="M2 20.5C2 10.5589 10.0589 2.5 20 2.5C29.9412 2.5 38 10.5589 38 20.5C38 30.4412 29.9412 38.5 20 38.5C10.0589 38.5 2 30.4412 2 20.5ZM16.475 18.4158C16.2591 18.5987 16.1 18.8374 15.7818 19.3147L13.1421 23.2742C11.5709 25.631 10.7853 26.8094 11.2741 27.3864C11.7628 27.9634 13.0544 27.3822 15.6375 26.2198L22.5244 23.1208C23.0474 22.8854 23.309 22.7676 23.525 22.5846C23.7408 22.4018 23.9 22.1632 24.2182 21.6858L27.155 17.2805C28.4744 15.3015 29.134 14.3121 28.8386 13.7775C28.7742 13.6611 28.6874 13.5586 28.5832 13.476C28.1044 13.0968 27.02 13.5848 24.8512 14.5608L17.4757 17.8798C16.9525 18.1152 16.691 18.2329 16.475 18.4158Z" fill="black"/>
</svg>
