<svg width="40" height="40" viewBox="0 0 40 40" fill="none" xmlns="http://www.w3.org/2000/svg">
<path fill-rule="evenodd" clip-rule="evenodd" d="M20 5.01266C11.7227 5.01266 5.01266 11.7227 5.01266 20C5.01266 28.2772 11.7227 34.9874 20 34.9874C28.2772 34.9874 34.9874 28.2772 34.9874 20C34.9874 11.7227 28.2772 5.01266 20 5.01266ZM2 20C2 10.0589 10.0589 2 20 2C29.9412 2 38 10.0589 38 20C38 29.9412 29.9412 38 20 38C10.0589 38 2 29.9412 2 20Z" fill="black"/>
<path fill-rule="evenodd" clip-rule="evenodd" d="M24.2938 16.3299L22.059 20.0544C21.9014 20.317 21.8138 20.4622 21.7416 20.5684C21.7096 20.6156 21.6902 20.6408 21.6796 20.6536L21.6702 20.6644L21.6688 20.666L21.6672 20.6672L21.6556 20.6758C21.642 20.6854 21.6154 20.7028 21.5658 20.7312C21.4544 20.7948 21.303 20.8712 21.029 21.0082L15.7062 23.6696L17.9409 19.9452C18.0985 19.6824 18.1862 19.5374 18.2582 19.4311C18.2902 19.384 18.3097 19.3588 18.3204 19.3458L18.3297 19.3351L18.3312 19.3336L18.3328 19.3322L18.3442 19.3237C18.3579 19.3141 18.3846 19.2966 18.4341 19.2683C18.5455 19.2046 18.6969 19.1283 18.9709 18.9913L24.2938 16.3299ZM27.2714 11.7853C27.67 11.7843 28.1864 11.9104 28.5926 12.349C28.9988 12.7877 29.0848 13.3123 29.0534 13.7096C29.026 14.0538 28.9106 14.3487 28.8278 14.5359C28.6706 14.8914 28.4122 15.3218 28.1602 15.7414C28.1464 15.7643 28.1328 15.7871 28.119 15.8099L24.6424 21.6044C24.623 21.6366 24.6038 21.669 24.5842 21.7016C24.3458 22.101 24.0892 22.5304 23.7156 22.8764C23.3422 23.2224 22.8942 23.4452 22.4778 23.6522C22.4436 23.6692 22.4098 23.686 22.3764 23.7028L14.8944 27.4438C14.8706 27.4556 14.8467 27.4676 14.8229 27.4796C14.3852 27.6986 13.9362 27.9232 13.5697 28.0528C13.3767 28.121 13.0738 28.2134 12.7286 28.2142C12.33 28.2152 11.8135 28.0892 11.4073 27.6504C11.0011 27.2118 10.9151 26.6872 10.9466 26.29C10.9739 25.9458 11.0892 25.6508 11.1721 25.4636C11.3294 25.1082 11.5878 24.6778 11.8397 24.2582C11.8535 24.2352 11.8672 24.2124 11.8809 24.1896L15.3575 18.3951C15.3768 18.363 15.3962 18.3306 15.4157 18.2979C15.6542 17.8986 15.9107 17.469 16.2842 17.1231C16.6578 16.7772 17.1057 16.5544 17.5222 16.3472C17.5562 16.3303 17.59 16.3135 17.6236 16.2967L25.1056 12.5557C25.1294 12.5438 25.1532 12.5319 25.177 12.52C25.6148 12.3009 26.0636 12.0763 26.4302 11.9467C26.6232 11.8785 26.926 11.7861 27.2714 11.7853Z" fill="black"/>
</svg>
