<svg width="40" height="40" viewBox="0 0 40 40" fill="none" xmlns="http://www.w3.org/2000/svg">
<path fill-rule="evenodd" clip-rule="evenodd" d="M2 20.8722C2 16.9753 2 15.0269 2.66708 13.3042C3.0034 12.4357 3.46084 11.6184 4.02598 10.8763C5.1469 9.4045 6.81274 8.3767 10.1444 6.32112L10.505 6.09864C14.5983 3.57312 16.645 2.31034 18.891 2.0613C19.628 1.97957 20.372 1.97957 21.109 2.0613C23.355 2.31034 25.4018 3.57312 29.495 6.09864L29.8556 6.32112C33.1872 8.3767 34.853 9.4045 35.974 10.8763C36.5392 11.6184 36.9966 12.4357 37.333 13.3042C38 15.0269 38 16.9753 38 20.8722C38 27.6012 38 30.9658 36.4278 33.4118C35.646 34.6282 34.6068 35.6608 33.3826 36.4376C30.921 38 27.535 38 20.7632 38H19.2369C12.465 38 9.07902 38 6.61732 36.4376C5.3932 35.6608 4.3541 34.6282 3.57226 33.4118C2 30.9658 2 27.6012 2 20.8722ZM14 27C13.1716 27 12.5 27.6716 12.5 28.5C12.5 29.3284 13.1716 30 14 30H26C26.8284 30 27.5 29.3284 27.5 28.5C27.5 27.6716 26.8284 27 26 27H14Z" fill="black"/>
</svg>
