<svg width="40" height="40" viewBox="0 0 40 40" fill="none" xmlns="http://www.w3.org/2000/svg">
<path fill-rule="evenodd" clip-rule="evenodd" d="M19.2369 34.79H20.7632C24.2092 34.79 26.576 34.7866 28.396 34.609C30.1688 34.436 31.0996 34.1204 31.7678 33.6964C32.6248 33.1526 33.3522 32.4298 33.8994 31.5782C34.3262 30.9142 34.6436 29.9892 34.8178 28.2276C34.9966 26.4192 35 24.0674 35 20.6432C35 16.5104 34.9526 15.2293 34.533 14.1457C34.2976 13.5378 33.9774 12.9657 33.5818 12.4462C32.8768 11.5205 31.8064 10.8047 28.273 8.62466L27.9126 8.40218C25.8242 7.11374 24.411 6.24462 23.2436 5.65154C22.1216 5.0815 21.4098 4.86518 20.7764 4.79494C20.2604 4.73772 19.7396 4.73772 19.2237 4.79494C18.5902 4.86518 17.8784 5.0815 16.7564 5.65154C15.5889 6.24462 14.1757 7.11374 12.0875 8.40218L11.7269 8.62466C8.19358 10.8047 7.12324 11.5205 6.41818 12.4462C6.02258 12.9657 5.70238 13.5378 5.46696 14.1457C5.04738 15.2293 5 16.5104 5 20.6432C5 24.0674 5.00338 26.4192 5.18216 28.2276C5.35632 29.9892 5.67376 30.9142 6.10058 31.5782C6.64786 32.4298 7.37524 33.1526 8.23212 33.6964C8.90042 34.1204 9.83126 34.436 11.6041 34.609C13.424 34.7866 15.7908 34.79 19.2369 34.79ZM2.66708 13.0752C2 14.7979 2 16.7463 2 20.6432C2 27.3722 2 30.7368 3.57226 33.1828C4.3541 34.3992 5.3932 35.4318 6.61732 36.2086C9.07902 37.771 12.465 37.771 19.2369 37.771H20.7632C27.535 37.771 30.921 37.771 33.3826 36.2086C34.6068 35.4318 35.646 34.3992 36.4278 33.1828C38 30.7368 38 27.3722 38 20.6432C38 16.7463 38 14.7979 37.333 13.0752C36.9966 12.2067 36.5392 11.3894 35.974 10.6473C34.853 9.1755 33.1872 8.1477 29.8556 6.0921L29.495 5.86964C25.4018 3.3441 23.355 2.08134 21.109 1.83229C20.372 1.75056 19.628 1.75056 18.891 1.83229C16.645 2.08134 14.5983 3.3441 10.505 5.86964L10.1444 6.0921C6.81274 8.1477 5.1469 9.1755 4.02598 10.6473C3.46084 11.3894 3.0034 12.2067 2.66708 13.0752Z" fill="black"/>
<path fill-rule="evenodd" clip-rule="evenodd" d="M12.5 28.0002C12.5 27.1716 13.1716 26.5002 14 26.5002H26C26.8284 26.5002 27.5 27.1716 27.5 28.0002C27.5 28.8286 26.8284 29.5002 26 29.5002H14C13.1716 29.5002 12.5 28.8286 12.5 28.0002Z" fill="black"/>
</svg>
