<svg width="42" height="42" viewBox="0 0 42 42" fill="none" xmlns="http://www.w3.org/2000/svg">
    <g id="Frame 1">
        <path id="LOGO" fill-rule="evenodd" clip-rule="evenodd"
            d="M0.210022 3.40376V38.5105H6.82502V24.9498C6.82502 22.7133 7.17152 20.8548 7.86452 19.3743C8.55752 17.8623 9.45527 17.1063 10.5578 17.1063C11.4713 17.1063 12.1328 17.4685 12.5423 18.193C12.9518 18.886 13.1565 20.1775 13.1565 22.0675V38.5105L32.0513 38.5105C37.4878 38.5105 41.895 34.1033 41.895 28.6668C41.895 23.2302 37.4878 18.823 32.0513 18.823C26.6147 18.823 22.2075 23.2302 22.2075 28.6668C19.6075 28.6668 19.64 27.0751 19.7306 22.6342C19.7498 21.6947 19.7715 20.6278 19.7715 19.4215C19.7715 16.6495 19.2045 14.6335 18.0705 13.3735C16.968 12.082 15.4875 11.4363 13.629 11.4363C12.0855 11.4363 10.6995 11.8615 9.47102 12.712C8.27402 13.531 7.39202 14.854 6.82502 16.681V9.2377C6.82502 5.70919 3.71281 2.97842 0.210022 3.40376ZM32.13 31.843C33.8697 31.843 35.28 30.4327 35.28 28.693C35.28 26.9533 33.8697 25.543 32.13 25.543C30.3903 25.543 28.98 26.9533 28.98 28.693C28.98 30.4327 30.3903 31.843 32.13 31.843Z"
            fill="#2F1919" />
    </g>
</svg>