<svg width="30" height="28" viewBox="0 0 30 28" fill="none" xmlns="http://www.w3.org/2000/svg">
<path fill-rule="evenodd" clip-rule="evenodd" d="M6.7683 3.21155C4.28532 4.16619 2.30769 6.53099 2.30769 9.6642C2.30769 12.1427 3.42493 14.5187 5.21412 16.8123C7.00365 19.1066 9.39153 21.2247 11.7767 23.1767C12.7479 23.9715 13.3966 24.4998 13.937 24.8414C14.451 25.1665 14.748 25.243 15 25.243C15.252 25.243 15.549 25.1665 16.063 24.8414C16.6033 24.4998 17.2521 23.9715 18.2234 23.1767C20.6085 21.2247 22.9963 19.1066 24.7858 16.8123C26.575 14.5187 27.6922 12.1427 27.6922 9.6642C27.6922 6.53099 25.7146 4.16619 23.2317 3.21155C20.7712 2.26557 17.8767 2.72039 15.9165 5.22708C15.6982 5.50628 15.3594 5.67005 15 5.67005C14.6406 5.67005 14.3018 5.50628 14.0835 5.22708C12.1233 2.72039 9.22869 2.26557 6.7683 3.21155ZM15 2.84141C12.3898 0.347119 8.87142 -0.0221959 5.92401 1.11102C2.63777 2.37452 0 5.52227 0 9.6642C0 12.8266 1.42625 15.6774 3.3794 18.1814C5.33221 20.6849 7.88553 22.9352 10.2958 24.9077L10.3504 24.9524C11.2526 25.6907 12.01 26.3107 12.6842 26.7369C13.3983 27.1883 14.1345 27.5 15 27.5C15.8655 27.5 16.6017 27.1883 17.3157 26.7369C17.99 26.3107 18.7474 25.6907 19.6495 24.9524L19.7041 24.9077C22.1145 22.9352 24.6678 20.6849 26.6207 18.1814C28.5738 15.6774 30 12.8266 30 9.6642C30 5.52227 27.3622 2.37452 24.076 1.11102C21.1285 -0.0221959 17.6101 0.347119 15 2.84141Z" fill="white"/>
</svg>
