<svg width="40" height="40" viewBox="0 0 40 40" fill="none" xmlns="http://www.w3.org/2000/svg">
<path fill-rule="evenodd" clip-rule="evenodd" d="M29.4798 3.99903H10.5201C9.29814 3.99899 8.26364 3.99897 7.41338 4.09003C6.50964 4.18681 5.67638 4.39727 4.9026 4.90561C4.84728 4.94195 4.79264 4.97927 4.73868 5.01757C3.98376 5.55339 3.48572 6.25226 3.06842 7.0578C2.6758 7.81568 2.30172 8.7778 1.8598 9.91436L1.78944 10.0953C1.08083 11.9174 0.490088 13.4365 0.203678 14.6702C-0.0948351 15.9562 -0.147115 17.2677 0.617326 18.4542C0.666782 18.531 0.71847 18.6063 0.772322 18.68C1.60182 19.8162 2.8407 20.2428 4.14546 20.4314V30.5906C4.14536 31.4562 4.14526 32.2498 4.23228 32.8954C4.3281 33.6064 4.55352 34.358 5.17306 34.976C5.7926 35.594 6.54586 35.8188 7.25852 35.9144C7.9057 36.0012 8.70126 36.0012 9.56896 36.001H15.8461C16.7138 36.0012 17.5094 36.0012 18.1565 35.9144C18.8692 35.8188 19.6225 35.594 20.242 34.976C20.8616 34.358 21.087 33.6064 21.1828 32.8954C21.2698 32.2498 21.2698 31.4562 21.2696 30.5906V20.613H30.992C31.6422 20.613 32.257 20.613 32.8338 20.6064V34.5008C32.8338 35.3292 33.507 36.0008 34.3374 36.0008C35.1678 36.0008 35.841 35.3292 35.841 34.5008V20.4332C37.1508 20.2458 38.3952 19.8201 39.2276 18.68C39.2816 18.6063 39.3332 18.531 39.3826 18.4542C40.1472 17.2677 40.0948 15.9562 39.7964 14.6702C39.51 13.4364 38.9192 11.9174 38.2106 10.0953L38.1402 9.91432C37.6982 8.77778 37.3242 7.81568 36.9316 7.0578C36.5142 6.25226 36.0162 5.55339 35.2614 5.01757C35.2074 4.97927 35.1528 4.94195 35.0974 4.90561C34.3236 4.39727 33.4904 4.18681 32.5866 4.09003C31.7364 3.99897 30.7018 3.99899 29.4798 3.99903ZM6.55654 7.4111C6.78636 7.26012 7.099 7.14092 7.73436 7.07288C8.40524 7.00102 9.27728 6.99903 10.5978 6.99903H29.4022C30.7228 6.99903 31.5948 7.00102 32.2656 7.07288C32.901 7.14092 33.2136 7.26012 33.4434 7.4111C33.4686 7.42762 33.4934 7.44458 33.518 7.462C33.7422 7.62114 33.9666 7.8688 34.26 8.43512C34.5698 9.0331 34.887 9.84344 35.3646 11.0716C36.1264 13.0308 36.6348 14.3481 36.8666 15.3471C37.092 16.3183 36.971 16.649 36.853 16.8322C36.835 16.8599 36.8164 16.8872 36.7968 16.9138C36.6684 17.0898 36.4032 17.3221 35.414 17.4637C34.3964 17.6093 32.9816 17.613 30.875 17.613H9.12496C7.01848 17.613 5.60354 17.6093 4.58608 17.4637C3.59682 17.3221 3.3316 17.0898 3.20314 16.9138C3.18366 16.8872 3.16496 16.8599 3.14708 16.8322C3.0291 16.649 2.9079 16.3183 3.13336 15.3471C3.36526 14.3481 3.87354 13.0308 4.63538 11.0716C5.11294 9.84344 5.4302 9.0331 5.73998 8.43512C6.03336 7.8688 6.25782 7.62114 6.48204 7.462C6.50656 7.44458 6.5314 7.42762 6.55654 7.4111ZM7.15268 28.3068V30.501C7.15268 31.4862 7.15588 32.0744 7.21268 32.4958C7.2387 32.6888 7.26936 32.7856 7.28732 32.8292C7.29148 32.8392 7.29474 32.8458 7.29676 32.8498L7.29952 32.8546L7.3044 32.8574C7.30826 32.8594 7.31492 32.8626 7.32504 32.8668C7.3687 32.8846 7.46566 32.9152 7.65924 32.9412C8.0817 32.9978 8.67112 33.001 9.6587 33.001H15.7564C16.744 33.001 17.3334 32.9978 17.7558 32.9412C17.9494 32.9152 18.0464 32.8846 18.09 32.8668C18.1002 32.8626 18.1068 32.8594 18.1107 32.8574L18.1156 32.8546L18.1183 32.8498C18.1203 32.8458 18.1236 32.8392 18.1277 32.8292C18.1457 32.7856 18.1764 32.6888 18.2024 32.4958C18.2592 32.0744 18.2624 31.4862 18.2624 30.501V28.3068H7.15268ZM7.15268 25.3068H18.2624V20.613H7.15268V25.3068Z" fill="black"/>
</svg>
