<svg width="40" height="40" viewBox="0 0 40 40" fill="none" xmlns="http://www.w3.org/2000/svg">
<path d="M29.48 3.99903H10.5201C9.2981 3.99899 8.26364 3.99897 7.41338 4.09003C6.50964 4.18681 5.67638 4.39727 4.9026 4.90561C4.84728 4.94195 4.79264 4.97927 4.73868 5.01757C3.98376 5.55339 3.48572 6.25228 3.06842 7.0578C2.6758 7.81568 2.30172 8.77782 1.8598 9.91438L1.78944 10.0953C1.08083 11.9174 0.490088 13.4365 0.203678 14.6703C-0.0948351 15.9562 -0.147115 17.2677 0.617326 18.4542C0.666782 18.531 0.71847 18.6063 0.772322 18.68C1.59623 19.8085 2.82402 20.2372 4.1191 20.4274H35.8808C37.176 20.2372 38.4038 19.8086 39.2276 18.68C39.2816 18.6063 39.3332 18.531 39.3826 18.4542C40.1472 17.2677 40.0948 15.9562 39.7964 14.6703C39.51 13.4364 38.9192 11.9174 38.2106 10.0953L38.1402 9.91432C37.6982 8.77778 37.3242 7.81568 36.9316 7.0578C36.5142 6.25228 36.0162 5.55339 35.2614 5.01757C35.2074 4.97927 35.1528 4.94195 35.0974 4.90561C34.3236 4.39727 33.4904 4.18681 32.5866 4.09003C31.7364 3.99897 30.7018 3.99899 29.48 3.99903Z" fill="black"/>
<path d="M35.841 22.4376H32.8338V34.5008C32.8338 35.3292 33.507 36.0008 34.3374 36.0008C35.1678 36.0008 35.841 35.3292 35.841 34.5008V22.4376Z" fill="black"/>
<path d="M21.2696 22.4376H17.469V25.0916C17.469 26.977 17.469 27.92 16.8818 28.5058C16.2945 29.0916 15.3494 29.0916 13.4593 29.0916H11.9557C10.0657 29.0916 9.12053 29.0916 8.53317 28.5058C7.94607 27.92 7.94607 26.977 7.94607 25.0916V22.4376H4.14545V30.5906C4.14535 31.4562 4.14525 32.2498 4.23227 32.8954C4.32809 33.6064 4.55351 34.358 5.17305 34.976C5.79259 35.594 6.54585 35.8188 7.25851 35.9144C7.90569 36.0012 8.70125 36.0012 9.56895 36.001H15.8461C16.7138 36.0012 17.5094 36.0012 18.1565 35.9144C18.8692 35.8188 19.6225 35.594 20.242 34.976C20.8616 34.358 21.087 33.6064 21.1828 32.8954C21.2698 32.2498 21.2698 31.4562 21.2696 30.5906V22.4376Z" fill="black"/>
</svg>
