<svg width="40" height="40" viewBox="0 0 40 40" fill="none" xmlns="http://www.w3.org/2000/svg">
<path fill-rule="evenodd" clip-rule="evenodd" d="M28.4062 12.0172C30.3532 12.0172 31.9314 10.4442 31.9314 8.5037C31.9314 6.56322 30.3532 4.99014 28.4062 4.99014C26.4594 4.99014 24.8812 6.56322 24.8812 8.5037C24.8812 10.4442 26.4594 12.0172 28.4062 12.0172ZM28.4062 15.0074C32.01 15.0074 34.9314 12.0956 34.9314 8.5037C34.9314 4.9118 32.01 2 28.4062 2C24.8026 2 21.8812 4.9118 21.8812 8.5037C21.8812 12.0956 24.8026 15.0074 28.4062 15.0074Z" fill="black"/>
<path fill-rule="evenodd" clip-rule="evenodd" d="M22.6282 2.41792C21.7838 2.2219 20.904 2.11826 20 2.11826C13.6267 2.11826 8.46008 7.26854 8.46008 13.6217V16.7702C8.46008 17.7656 7.94202 18.6898 7.09158 19.2115L4.62584 20.724C0.643885 23.1668 1.3258 29.1306 5.75704 30.6174L7.44848 31.1848C9.1543 31.7572 10.8897 32.2096 12.6422 32.5422L12.6459 32.55C12.9188 33.1264 13.3395 33.9026 13.9296 34.687C15.0941 36.235 17.0708 38 20 38C22.9292 38 24.906 36.235 26.0704 34.687C26.6606 33.9026 27.0812 33.1264 27.3542 32.55L27.3578 32.5422C29.1104 32.2096 30.8456 31.7572 32.5514 31.1848L34.243 30.6174C38.6742 29.1306 39.3562 23.1668 35.3742 20.724L32.9084 19.2115C32.058 18.6898 31.54 17.7656 31.54 16.7702V16.2806C30.6784 16.6257 29.7464 16.8328 28.7714 16.8743C28.8068 18.7886 29.817 20.5568 31.4568 21.5628L33.9226 23.0754C35.905 24.2914 35.5656 27.2606 33.3594 28.0008L31.668 28.5682C24.098 31.1082 15.902 31.1082 8.33198 28.5682L6.64054 28.0008C4.43442 27.2606 4.09494 24.2914 6.07736 23.0754L8.54312 21.5628C10.2127 20.5386 11.2297 18.7244 11.2297 16.7702V13.6217C11.2297 8.7933 15.1563 4.8791 20 4.8791C20.2722 4.8791 20.5416 4.89146 20.8076 4.91566C21.2564 3.97294 21.8766 3.12702 22.6282 2.41792ZM16.1574 33.0466C18.713 33.2966 21.2872 33.2966 23.8426 33.0466C22.9312 34.2522 21.6804 35.2392 20 35.2392C18.3197 35.2392 17.0688 34.2522 16.1574 33.0466Z" fill="black"/>
</svg>
