<svg width="30" height="30" viewBox="0 0 30 30" fill="none" xmlns="http://www.w3.org/2000/svg">
<path fill-rule="evenodd" clip-rule="evenodd" d="M22.875 1.5C25.9816 1.5 28.5 4.01839 28.5 7.125C28.5 10.2316 25.9816 12.75 22.875 12.75C20.8153 12.75 19.0143 11.643 18.0342 9.99154L12.4936 13.3159C12.6602 13.8476 12.75 14.4133 12.75 15C12.75 15.5866 12.6602 16.1523 12.4936 16.684L18.0342 20.0085C19.0143 18.357 20.8153 17.25 22.875 17.25C25.9816 17.25 28.5 19.7684 28.5 22.875C28.5 25.9816 25.9816 28.5 22.875 28.5C19.7684 28.5 17.25 25.9816 17.25 22.875C17.25 22.642 17.2641 22.4124 17.2917 22.187L11.4023 18.6532C10.3706 19.86 8.83714 20.625 7.125 20.625C4.01839 20.625 1.5 18.1066 1.5 15C1.5 11.8934 4.01839 9.375 7.125 9.375C8.83714 9.375 10.3706 10.14 11.4023 11.3467L17.2917 7.81312C17.2641 7.5876 17.25 7.35795 17.25 7.125C17.25 4.01839 19.7684 1.5 22.875 1.5ZM22.875 3.75C24.7389 3.75 26.25 5.26104 26.25 7.125C26.25 8.98896 24.7389 10.5 22.875 10.5C21.0111 10.5 19.5 8.98896 19.5 7.125C19.5 5.26104 21.0111 3.75 22.875 3.75ZM7.125 11.625C8.98896 11.625 10.5 13.136 10.5 15C10.5 16.8639 8.98896 18.375 7.125 18.375C5.26104 18.375 3.75 16.8639 3.75 15C3.75 13.136 5.26104 11.625 7.125 11.625ZM26.25 22.875C26.25 21.0111 24.7389 19.5 22.875 19.5C21.0111 19.5 19.5 21.0111 19.5 22.875C19.5 24.7389 21.0111 26.25 22.875 26.25C24.7389 26.25 26.25 24.7389 26.25 22.875Z" fill="white"/>
</svg>
