<svg width="40" height="40" viewBox="0 0 40 40" fill="none" xmlns="http://www.w3.org/2000/svg">
<path fill-rule="evenodd" clip-rule="evenodd" d="M10.5823 8.6076C10.5823 3.66956 14.9914 0 19.9999 0C25.0084 0 29.4174 3.66956 29.4174 8.6076C29.4174 13.5456 25.0084 17.2152 19.9999 17.2152C14.9914 17.2152 10.5823 13.5456 10.5823 8.6076ZM19.9999 3.03798C16.2484 3.03798 13.5563 5.71576 13.5563 8.6076C13.5563 11.4994 16.2484 14.1772 19.9999 14.1772C23.7514 14.1772 26.4436 11.4994 26.4436 8.6076C26.4436 5.71576 23.7514 3.03798 19.9999 3.03798Z" fill="black"/>
<path fill-rule="evenodd" clip-rule="evenodd" d="M9.86529 22.417C16.0867 18.4834 23.9132 18.4834 30.1346 22.417C33.779 24.7212 36 28.8204 36 33.236V34.2638C36 34.6678 36.0002 34.9898 35.9694 35.2794C35.708 37.7456 33.825 39.6972 31.4352 39.9684C31.1546 40.0002 30.843 40 30.4526 40H9.54731C9.15705 40 8.84539 40.0002 8.56483 39.9684C6.17495 39.6972 4.29191 37.7456 4.03051 35.2794C3.99981 34.9898 3.99989 34.6678 4.00001 34.2636V33.236C4.00001 28.8204 6.22107 24.7212 9.86529 22.417ZM28.5694 25.0548C23.3086 21.7284 16.6914 21.7284 11.4306 25.0548C8.67737 26.7956 6.99665 29.8946 6.99665 33.236V34.1806C6.99665 34.7066 6.99891 34.8442 7.00937 34.943C7.11849 35.9726 7.90337 36.7814 8.89227 36.8936C8.98699 36.9044 9.11937 36.9066 9.62793 36.9066H30.372C30.8806 36.9066 31.013 36.9044 31.1078 36.8936C32.0966 36.7814 32.8814 35.9726 32.9906 34.943C33.001 34.8442 33.0034 34.7066 33.0034 34.1806V33.236C33.0034 29.8946 31.3226 26.7956 28.5694 25.0548Z" fill="black"/>
</svg>
