<svg width="40" height="40" viewBox="0 0 40 40" fill="none" xmlns="http://www.w3.org/2000/svg">
<path d="M10.5 8.6076C10.5 3.66958 14.9477 0 20 0C25.0522 0 29.5 3.66958 29.5 8.6076C29.5 13.5456 25.0522 17.2152 20 17.2152C14.9477 17.2152 10.5 13.5456 10.5 8.6076Z" fill="black"/>
<path d="M7.56398 39.9758C7.78134 40 8.03964 40 8.55628 40H31.4438C31.9604 40 32.2186 40 32.436 39.9758C34.3 39.7688 35.7718 38.2784 35.9762 36.3908C36 36.1708 36 35.9092 36 35.386V34.3658C36 30.1774 33.8476 26.291 30.3184 24.107C23.984 20.187 16.016 20.187 9.68166 24.107C6.15246 26.291 4 30.1774 4 34.3658V35.386C4 35.9092 4 36.1708 4.02384 36.3908C4.22824 38.2784 5.70002 39.7688 7.56398 39.9758Z" fill="black"/>
</svg>
