<svg width="40" height="40" viewBox="0 0 40 40" fill="none" xmlns="http://www.w3.org/2000/svg">
<path d="M35.8936 25.3056C38.4442 26.6886 40 29.1496 40 31.8018V32.3994C40.0002 32.6264 40.0002 32.8292 39.9774 33.0136C39.7844 34.5754 38.3944 35.8086 36.6338 35.98C36.4262 36.0002 36.1974 36 35.9418 36H29.2128C28.8958 36 28.7372 36 28.671 35.9096C28.6048 35.8194 28.5976 35.6384 28.7852 35.3866C31.0496 32.347 30.2094 26.8572 28.338 24.0732C28.154 23.7994 28.113 23.6336 28.182 23.5358C28.2512 23.438 28.4162 23.4444 28.7464 23.4572C30.9724 23.5434 33.9202 24.2358 35.8936 25.3056Z" fill="black"/>
<path fill-rule="evenodd" clip-rule="evenodd" d="M13.9697 4C9.90702 4 6.28516 6.86066 6.28516 10.7609C6.28516 14.6611 9.90702 17.5218 13.9697 17.5218C18.0324 17.5218 21.6542 14.6611 21.6542 10.7609C21.6542 6.86066 18.0324 4 13.9697 4ZM29.388 9.4857C25.976 9.4857 22.8818 11.8939 22.8818 15.2361C22.8818 18.5782 25.976 20.9864 29.388 20.9864C32.7998 20.9864 35.894 18.5782 35.894 15.2361C35.894 11.8939 32.7998 9.4857 29.388 9.4857Z" fill="black"/>
<path fill-rule="evenodd" clip-rule="evenodd" d="M22.806 21.3748C17.3814 18.1262 10.5579 18.1262 5.13346 21.3748C1.9448 23.2846 3.33852e-05 26.6828 3.33852e-05 30.345L1.63691e-05 31.1888C-0.000107525 31.519 -0.000209289 31.79 0.0270992 32.034C0.259196 34.1082 1.9304 35.746 4.0469 35.9734C4.29592 36.0002 4.57244 36.0002 4.90936 36H23.03C23.3668 36.0002 23.6434 36.0002 23.8924 35.9734C26.009 35.746 27.6802 34.1082 27.9122 32.034C27.9396 31.79 27.9394 31.519 27.9394 31.1888V30.345C27.9394 26.6828 25.9946 23.2846 22.806 21.3748Z" fill="black"/>
</svg>
