<svg width="40" height="40" viewBox="0 0 40 40" fill="none" xmlns="http://www.w3.org/2000/svg">
<path fill-rule="evenodd" clip-rule="evenodd" d="M13.9712 4C9.89321 4 6.22327 6.87818 6.22327 10.841C6.22327 14.8039 9.89321 17.6821 13.9712 17.6821C18.0492 17.6821 21.7192 14.8039 21.7192 10.841C21.7192 6.87818 18.0492 4 13.9712 4ZM9.27261 10.841C9.27261 8.9001 11.1779 6.99664 13.9712 6.99664C16.7644 6.99664 18.6698 8.9001 18.6698 10.841C18.6698 12.782 16.7644 14.6854 13.9712 14.6854C11.1779 14.6854 9.27261 12.782 9.27261 10.841Z" fill="black"/>
<path fill-rule="evenodd" clip-rule="evenodd" d="M29.2376 9.43811C25.8042 9.43811 22.6566 11.8676 22.6566 15.2774C22.6566 18.6872 25.8042 21.1166 29.2376 21.1166C32.671 21.1166 35.8186 18.6872 35.8186 15.2774C35.8186 11.8676 32.671 9.43811 29.2376 9.43811ZM25.706 15.2774C25.706 13.8892 27.0894 12.4348 29.2376 12.4348C31.3858 12.4348 32.7694 13.8892 32.7694 15.2774C32.7694 16.6656 31.3858 18.12 29.2376 18.12C27.0894 18.12 25.706 16.6656 25.706 15.2774Z" fill="black"/>
<path fill-rule="evenodd" clip-rule="evenodd" d="M5.15038 21.244C1.95191 23.1618 3.49738e-05 26.5754 3.49738e-05 30.2552L1.58702e-05 31.0978C-0.000106091 31.4202 -0.000210147 31.6954 0.0276916 31.945C0.264908 34.0674 1.97234 35.7406 4.1312 35.9728C4.3852 36.0002 4.66526 36 4.99404 36H22.9482C23.277 36 23.5572 36.0002 23.8112 35.9728C25.97 35.7406 27.6776 34.0674 27.9148 31.945C27.9426 31.6954 27.9426 31.4202 27.9424 31.0978V30.2552C27.9424 26.5754 25.9906 23.1618 22.792 21.244C17.3769 17.9971 10.5655 17.9971 5.15038 21.244ZM3.04938 30.2552C3.04938 27.6216 4.44632 25.1764 6.73864 23.802C11.1785 21.14 16.7639 21.14 21.2038 23.802C23.496 25.1764 24.893 27.6216 24.893 30.2552V31.024C24.893 31.4588 24.8908 31.5542 24.8836 31.6178C24.8028 32.3408 24.2204 32.9142 23.4794 32.994C23.414 33.001 23.3162 33.0034 22.8734 33.0034H5.06906C4.62622 33.0034 4.52848 33.001 4.46308 32.994C3.722 32.9142 3.1396 32.3408 3.0588 31.6178C3.0517 31.5542 3.04938 31.4588 3.04938 31.024V30.2552Z" fill="black"/>
<path d="M35.822 23.8552C33.7476 22.6736 31.4054 22.1002 29.0754 22.128C28.8686 22.1306 28.6616 22.1378 28.455 22.1498C27.6166 22.1982 26.973 22.9054 27.0228 23.7338C27.0726 24.562 27.7962 25.1896 28.6344 25.1412C28.7936 25.132 28.9532 25.1264 29.1126 25.1244C30.9116 25.103 32.71 25.5462 34.293 26.4478C35.9684 27.4022 36.9506 29.0724 36.9506 30.8312V31.3546C36.9508 31.5762 36.9488 31.6606 36.942 31.7184C36.8694 32.3352 36.324 32.9112 35.516 32.9938C35.4378 33.0018 35.3326 33.0034 35.0984 33.0034H30.1614C29.3216 33.0034 28.6368 33.6718 28.6368 34.5016C28.6368 35.3314 29.3216 36 30.1614 36H35.1278C35.3178 36.0002 35.5778 36.0004 35.8314 35.9744C37.9526 35.7576 39.7222 34.1782 39.971 32.0626C40.0004 31.8134 40.0002 31.5594 40 31.3838V31.3814V31.3528V30.8312C40 27.9522 38.3924 25.3192 35.822 23.8552Z" fill="black"/>
</svg>
